<svg xmlns="http://www.w3.org/2000/svg" viewBox="0 0 48 48">
  <rect width="48" height="48" fill="#003399"/>
  <g fill="#FFCC00" transform="translate(24, 24)">
    <path d="M0 -1.5 L0.4 -0.3 L1.5 -0.3 L0.6 0.3 L1 1.4 L0 0.8 L-1 1.4 L-0.6 0.3 L-1.5 -0.3 L-0.4 -0.3 Z" transform="translate(0, -12)"/>
    <path d="M0 -1.5 L0.4 -0.3 L1.5 -0.3 L0.6 0.3 L1 1.4 L0 0.8 L-1 1.4 L-0.6 0.3 L-1.5 -0.3 L-0.4 -0.3 Z" transform="rotate(30) translate(0, -12)"/>
    <path d="M0 -1.5 L0.4 -0.3 L1.5 -0.3 L0.6 0.3 L1 1.4 L0 0.8 L-1 1.4 L-0.6 0.3 L-1.5 -0.3 L-0.4 -0.3 Z" transform="rotate(60) translate(0, -12)"/>
    <path d="M0 -1.5 L0.4 -0.3 L1.5 -0.3 L0.6 0.3 L1 1.4 L0 0.8 L-1 1.4 L-0.6 0.3 L-1.5 -0.3 L-0.4 -0.3 Z" transform="rotate(90) translate(0, -12)"/>
    <path d="M0 -1.5 L0.4 -0.3 L1.5 -0.3 L0.6 0.3 L1 1.4 L0 0.8 L-1 1.4 L-0.6 0.3 L-1.5 -0.3 L-0.4 -0.3 Z" transform="rotate(120) translate(0, -12)"/>
    <path d="M0 -1.5 L0.4 -0.3 L1.5 -0.3 L0.6 0.3 L1 1.4 L0 0.8 L-1 1.4 L-0.6 0.3 L-1.5 -0.3 L-0.4 -0.3 Z" transform="rotate(150) translate(0, -12)"/>
    <path d="M0 -1.5 L0.4 -0.3 L1.5 -0.3 L0.6 0.3 L1 1.4 L0 0.8 L-1 1.4 L-0.6 0.3 L-1.5 -0.3 L-0.4 -0.3 Z" transform="rotate(180) translate(0, -12)"/>
    <path d="M0 -1.5 L0.4 -0.3 L1.5 -0.3 L0.6 0.3 L1 1.4 L0 0.8 L-1 1.4 L-0.6 0.3 L-1.5 -0.3 L-0.4 -0.3 Z" transform="rotate(210) translate(0, -12)"/>
    <path d="M0 -1.5 L0.4 -0.3 L1.5 -0.3 L0.6 0.3 L1 1.4 L0 0.8 L-1 1.4 L-0.6 0.3 L-1.5 -0.3 L-0.4 -0.3 Z" transform="rotate(240) translate(0, -12)"/>
    <path d="M0 -1.5 L0.4 -0.3 L1.5 -0.3 L0.6 0.3 L1 1.4 L0 0.8 L-1 1.4 L-0.6 0.3 L-1.5 -0.3 L-0.4 -0.3 Z" transform="rotate(270) translate(0, -12)"/>
    <path d="M0 -1.5 L0.4 -0.3 L1.5 -0.3 L0.6 0.3 L1 1.4 L0 0.8 L-1 1.4 L-0.6 0.3 L-1.5 -0.3 L-0.4 -0.3 Z" transform="rotate(300) translate(0, -12)"/>
    <path d="M0 -1.5 L0.4 -0.3 L1.5 -0.3 L0.6 0.3 L1 1.4 L0 0.8 L-1 1.4 L-0.6 0.3 L-1.5 -0.3 L-0.4 -0.3 Z" transform="rotate(330) translate(0, -12)"/>
  </g>
</svg>
