<svg xmlns="http://www.w3.org/2000/svg" viewBox="0 0 48 48">
  <rect width="48" height="48" fill="#fff"/>
  <rect width="48" height="3.7" y="0" fill="#B22234"/>
  <rect width="48" height="3.7" y="7.4" fill="#B22234"/>
  <rect width="48" height="3.7" y="14.8" fill="#B22234"/>
  <rect width="48" height="3.7" y="22.2" fill="#B22234"/>
  <rect width="48" height="3.7" y="29.6" fill="#B22234"/>
  <rect width="48" height="3.7" y="37" fill="#B22234"/>
  <rect width="48" height="3.7" y="44.4" fill="#B22234"/>
  <rect width="20" height="25.9" fill="#3C3B6E"/>
  <circle cx="4" cy="5" r="1" fill="#fff"/>
  <circle cx="10" cy="5" r="1" fill="#fff"/>
  <circle cx="16" cy="5" r="1" fill="#fff"/>
  <circle cx="7" cy="9" r="1" fill="#fff"/>
  <circle cx="13" cy="9" r="1" fill="#fff"/>
  <circle cx="4" cy="13" r="1" fill="#fff"/>
  <circle cx="10" cy="13" r="1" fill="#fff"/>
  <circle cx="16" cy="13" r="1" fill="#fff"/>
  <circle cx="7" cy="17" r="1" fill="#fff"/>
  <circle cx="13" cy="17" r="1" fill="#fff"/>
  <circle cx="4" cy="21" r="1" fill="#fff"/>
  <circle cx="10" cy="21" r="1" fill="#fff"/>
  <circle cx="16" cy="21" r="1" fill="#fff"/>
</svg>
