<svg width="141" height="24" viewBox="0 0 141 24" fill="none" xmlns="http://www.w3.org/2000/svg">
  <g clip-path="url(#clip0_823_140)">
    <path
      d="M6.82277 -0.0124512L12.3323 5.489L10.5055 10.093L5.89477 11.9171L0.385254 6.41564L2.20226 1.81942L6.82277 -0.0124512Z"
      fill="#02676C"/>
    <path
      d="M18.7671 11.9194L24.2766 17.4209L22.4499 22.0249L17.8391 23.849L12.3296 18.3475L14.1466 13.7513L18.7671 11.9194Z"
      fill="#02676C"/>
    <path
      d="M12.3296 5.489L17.8391 -0.0124512L22.4499 1.81163L24.2766 6.41564L18.7671 11.9171L14.1641 10.1027L12.3296 5.489Z"
      fill="#02676C"/>
    <path
      d="M0.385254 17.4209L5.89477 11.9194L10.5055 13.7416L12.3323 18.3475L6.82277 23.849L2.21981 22.0346L0.385254 17.4209Z"
      fill="#02676C"/>
    <path
      d="M40.4735 10.5122H33.7377V4.55518H30.7432V19.2822H33.7377V13.2376H40.4735V19.2822H43.511V4.55518H40.4735V10.5122Z"
      fill="#212121"/>
    <path
      d="M52.8595 8.65807C52.1186 8.2843 51.2199 8.09741 50.1632 8.09741C49.1065 8.09741 48.2702 8.27651 47.5215 8.63666C46.7729 8.9968 46.19 9.49711 45.7708 10.1415C45.3516 10.7858 45.143 11.5412 45.143 12.4055V12.6469H48.005V12.4055C48.005 11.7748 48.1668 11.3387 48.4885 11.0973C48.8102 10.8559 49.3249 10.7352 50.0287 10.7352C50.7325 10.7352 51.2316 10.8384 51.6137 11.0428C51.9958 11.2492 52.1869 11.7242 52.1869 12.4717V12.8552L48.3793 13.4159C47.6171 13.519 46.9698 13.702 46.4415 13.9648C45.9131 14.2296 45.5174 14.5722 45.2522 14.9986C44.9871 15.4229 44.8564 15.9213 44.8564 16.4936C44.8564 17.4748 45.1898 18.2223 45.8585 18.7363C46.5253 19.2502 47.3441 19.5052 48.3131 19.5052C49.0169 19.5052 49.6115 19.4176 50.0969 19.2405C50.5804 19.0653 50.9918 18.8375 51.3291 18.5591C51.6663 18.2807 51.9451 18.0024 52.1654 17.724H52.2532V19.2853H55.0703V12.7793C55.0703 11.7981 54.887 10.9591 54.5205 10.2622C54.154 9.56719 53.6003 9.03184 52.8575 8.65807H52.8595ZM51.7482 16.3399C51.4538 16.663 51.0873 16.883 50.6467 16.9998C50.2061 17.1166 49.7733 17.175 49.3483 17.175C48.8043 17.175 48.4047 17.1049 48.1493 16.9667C47.8919 16.8285 47.7633 16.5968 47.7633 16.2737C47.7633 16.0109 47.8549 15.8084 48.0382 15.6702C48.2214 15.532 48.5119 15.4327 48.9077 15.3743L52.1869 14.8798V14.9129C52.1869 15.5436 52.0407 16.0186 51.7463 16.3418L51.7482 16.3399Z"
      fill="#212121"/>
    <path
      d="M64.1134 8.32104L62.4192 13.0029L61.6706 15.1346H61.4717L60.5691 13.0029L58.6546 8.32104H55.3091L59.9666 18.8723L59.7112 19.4232C59.5358 19.8184 59.3408 20.0676 59.1283 20.1708C58.9158 20.274 58.5883 20.3246 58.1496 20.3246H56.432V22.8086C56.6367 22.867 56.9116 22.9176 57.2567 22.9624C57.6018 23.0072 57.943 23.0286 58.2802 23.0286C58.9996 23.0286 59.6079 22.9468 60.107 22.7872C60.6061 22.6256 61.0389 22.3375 61.4054 21.9189C61.7719 21.5004 62.1092 20.9339 62.4173 20.2156L67.4589 8.32299H64.1134V8.32104Z"
      fill="#212121"/>
    <path
      d="M75.7501 8.80018C74.9352 8.33102 73.9487 8.09741 72.7887 8.09741C71.6287 8.09741 70.6285 8.33102 69.7844 8.80018C68.9402 9.26934 68.2988 9.93123 67.8582 10.7897C67.4176 11.6463 67.1973 12.6469 67.1973 13.7896C67.1973 14.9324 67.4176 15.9544 67.8582 16.8129C68.2988 17.6695 68.9402 18.3333 69.7844 18.8025C70.6285 19.2716 71.6306 19.5052 72.7887 19.5052C73.9467 19.5052 74.9352 19.2716 75.7501 18.8025C76.565 18.3333 77.1947 17.6714 77.6431 16.8129C78.0915 15.9564 78.3138 14.9479 78.3138 13.7896C78.3138 12.6313 78.0896 11.6463 77.6431 10.7897C77.1947 9.93318 76.565 9.26934 75.7501 8.80018ZM74.826 16.1647C74.4361 16.6182 73.7576 16.846 72.7906 16.846C71.8236 16.846 71.1569 16.6182 70.7553 16.1647C70.3517 15.7111 70.1509 14.9187 70.1509 13.7916C70.1509 12.6644 70.3517 11.876 70.7553 11.4283C71.1588 10.9805 71.8373 10.7586 72.7906 10.7586C73.744 10.7586 74.438 10.9825 74.826 11.4283C75.2139 11.876 75.4089 12.6625 75.4089 13.7916C75.4089 14.9207 75.2139 15.7111 74.826 16.1647Z"
      fill="#212121"/>
    <path
      d="M83.273 5.65698H80.9179L80.3213 8.31621H78.4517V10.8002H80.257V15.7021C80.257 16.9928 80.6059 17.9116 81.3019 18.4606C81.998 19.0096 83.0371 19.2841 84.4174 19.2841C84.7839 19.2841 85.1504 19.2627 85.5189 19.2179C85.8854 19.1731 86.2012 19.1225 86.4664 19.0641V16.5801H85.2109C84.433 16.5801 83.9163 16.5139 83.659 16.3815C83.4016 16.2491 83.273 15.9279 83.273 15.414V10.7983H86.4644V8.31426H83.273V5.65503V5.65698Z"
      fill="#212121"/>
    <path
      d="M100.551 11.5907V11.3707C101.534 11.2539 102.265 10.921 102.741 10.3701C103.218 9.82107 103.456 9.11441 103.456 8.24812C103.456 7.38182 103.273 6.681 102.906 6.13787C102.54 5.59668 102.004 5.19565 101.3 4.94063C100.596 4.68366 99.7362 4.55518 98.7244 4.55518H91.6143V19.2841H99.0324C100.118 19.2841 101.035 19.1186 101.783 18.7896C102.532 18.4607 103.097 17.9915 103.477 17.3822C103.86 16.7748 104.051 16.0603 104.051 15.2388C104.051 14.2577 103.756 13.4284 103.169 12.7548C102.583 12.0812 101.709 11.6919 100.549 11.5907H100.551ZM94.6069 7.26113H98.4807C99.1708 7.26113 99.6699 7.3643 99.978 7.56871C100.286 7.77312 100.44 8.20529 100.44 8.86523C100.44 9.52517 100.286 9.93593 99.978 10.1403C99.6699 10.3447 99.1786 10.4479 98.5021 10.4479H94.6049V7.26113H94.6069ZM100.463 16.2394C100.111 16.4672 99.5978 16.5801 98.9232 16.5801H94.6088V12.9534H98.9232C99.5978 12.9534 100.112 13.0624 100.463 13.2824C100.816 13.5023 100.992 14.0007 100.992 14.7774C100.992 15.5542 100.816 16.0117 100.463 16.2394Z"
      fill="#212121"/>
    <path
      d="M112.953 8.65807C112.212 8.2843 111.314 8.09741 110.257 8.09741C109.2 8.09741 108.364 8.27651 107.615 8.63666C106.867 8.9968 106.284 9.49711 105.865 10.1415C105.445 10.7858 105.237 11.5412 105.237 12.4055V12.6469H108.099V12.4055C108.099 11.7748 108.261 11.3387 108.582 11.0973C108.904 10.8559 109.419 10.7352 110.122 10.7352C110.826 10.7352 111.325 10.8384 111.707 11.0428C112.09 11.2492 112.281 11.7242 112.281 12.4717V12.8552L108.473 13.4159C107.711 13.519 107.064 13.702 106.535 13.9648C106.007 14.2296 105.611 14.5722 105.346 14.9986C105.081 15.4229 104.95 15.9213 104.95 16.4936C104.95 17.4748 105.284 18.2223 105.952 18.7363C106.619 19.2502 107.438 19.5052 108.407 19.5052C109.111 19.5052 109.705 19.4176 110.191 19.2405C110.674 19.0653 111.086 18.8375 111.423 18.5591C111.76 18.2807 112.039 18.0024 112.259 17.724H112.347V19.2853H115.164V12.7793C115.164 11.7981 114.981 10.9591 114.614 10.2622C114.248 9.56719 113.692 9.03184 112.951 8.65807H112.953ZM111.842 16.3399C111.548 16.663 111.181 16.883 110.74 16.9998C110.3 17.1166 109.867 17.175 109.442 17.175C108.898 17.175 108.498 17.1049 108.243 16.9667C107.986 16.8285 107.857 16.5968 107.857 16.2737C107.857 16.0109 107.949 15.8084 108.132 15.6702C108.315 15.532 108.606 15.4327 109.001 15.3743L112.281 14.8798V14.9129C112.281 15.5436 112.134 16.0186 111.84 16.3418L111.842 16.3399Z"
      fill="#212121"/>
    <path
      d="M125.877 8.65807C125.268 8.2843 124.479 8.09741 123.51 8.09741C122.835 8.09741 122.254 8.18891 121.771 8.3719C121.287 8.55489 120.884 8.81576 120.56 9.15254C120.237 9.48932 119.973 9.86309 119.769 10.2739H119.659V8.31739H116.864V19.2853H119.88V13.0655C119.88 12.4503 119.967 11.9695 120.145 11.6249C120.32 11.2803 120.586 11.0389 120.936 10.8988C121.289 10.7605 121.744 10.6905 122.301 10.6905C123.182 10.6905 123.787 10.8598 124.118 11.1966C124.448 11.5334 124.613 12.1135 124.613 12.9331V19.2853H127.651V12.3607C127.651 11.5548 127.508 10.8287 127.222 10.1843C126.935 9.53994 126.489 9.02989 125.879 8.65612L125.877 8.65807Z"
      fill="#212121"/>
    <path
      d="M140.239 8.31431H136.718L134.076 12.4453H132.358V4.55518H129.342V19.2822H132.358V15.1493H134.119L136.694 19.2822H140.217L136.497 13.5023L140.239 8.31431Z"
      fill="#212121"/>
  </g>
  <defs>
    <clipPath id="clip0_823_140">
      <rect width="141" height="24" fill="white"/>
    </clipPath>
  </defs>
</svg>
